@startuml

IDLE:
PROCESSING:
PROCESSING_CALLED:
PENDING:
COMPLETE:

[*] --> IDLE

/' iterate() '/
IDLE --> PROCESSING: iterate()

/' processing() '/
PROCESSING --> IDLE: a=IDLE
PROCESSING --> PENDING: a=SCHEDULED
PROCESSING --> COMPLETE: a=SUCCEEDED

PROCESSING_CALLED --> PROCESSING: a=SCHEDULED

/' succeeded() '/
PROCESSING --> PROCESSING_CALLED: succeeded()
PENDING --> PROCESSING: succeeded()

/' failed(x) '/
PROCESSING --> PROCESSING_CALLED: failed(x)
PENDING --> COMPLETE: failed(x)

/' abort(x) '/
IDLE --> COMPLETE: abort(x)

@enduml